<?xml version="1.0" encoding="UTF-8" standalone="no"?>
<svg
   viewBox="0 0 32 32"
   class="logo"
   version="1.1"
   id="svg2"
   sodipodi:docname="logo.svg"
   inkscape:version="1.4.2 (ebf0e940d0, 2025-05-08)"
   inkscape:export-filename="../../public/favicon.png"
   inkscape:export-xdpi="96"
   inkscape:export-ydpi="96"
   xmlns:inkscape="http://www.inkscape.org/namespaces/inkscape"
   xmlns:sodipodi="http://sodipodi.sourceforge.net/DTD/sodipodi-0.dtd"
   xmlns="http://www.w3.org/2000/svg"
   xmlns:svg="http://www.w3.org/2000/svg">
  <defs
     id="defs2">
    <clipPath
       clipPathUnits="userSpaceOnUse"
       id="clipPath12">
      <path
         d="M 15.504879,0.40693884 2,7.9999999 V 24 L 15.504879,31.593061 29,24 V 7.9999999 Z"
         id="path13"
         style="fill:#000000;stroke-width:0.975786"
         sodipodi:nodetypes="ccccccc" />
    </clipPath>
  </defs>
  <sodipodi:namedview
     id="namedview2"
     pagecolor="#ffffff"
     bordercolor="#000000"
     borderopacity="0.25"
     inkscape:showpageshadow="2"
     inkscape:pageopacity="0.0"
     inkscape:pagecheckerboard="0"
     inkscape:deskcolor="#d1d1d1"
     inkscape:zoom="6.820683"
     inkscape:cx="-3.2987898"
     inkscape:cy="20.819029"
     inkscape:window-width="1280"
     inkscape:window-height="728"
     inkscape:window-x="0"
     inkscape:window-y="0"
     inkscape:window-maximized="1"
     inkscape:current-layer="svg2"
     showgrid="true">
    <inkscape:grid
       id="grid1"
       units="px"
       originx="0"
       originy="0"
       spacingx="1"
       spacingy="1"
       empcolor="#0099e5"
       empopacity="0.30196078"
       color="#0099e5"
       opacity="0.14901961"
       empspacing="5"
       enabled="true"
       visible="true" />
  </sodipodi:namedview>
  <g
     id="g12"
     clip-path="url(#clipPath12)">
    <rect
       style="opacity:1;fill:#ffffff;fill-opacity:1;stroke-linecap:round;stroke-dashoffset:40.32;paint-order:markers fill stroke"
       id="rect13"
       width="32"
       height="32"
       x="0"
       y="0" />
    <path
       d="M 6.5569209,13.072642 C 6.1178171,13.092158 5.7372606,13.209252 5.3859776,13.423925 4.937116,13.706903 4.585833,14.136249 4.3321287,14.72172 4.0881821,15.307192 3.96133,16.009758 3.96133,16.848934 c 0,0.839176 0.1268521,1.697868 0.3707987,2.566317 a 11.875316,11.875316 0 0 0 2.6736537,4.732563 8.7820745,8.7820745 0 0 0 2.0198772,1.629562 c 0.5366823,0.302494 1.0343334,0.517167 1.5027104,0.624503 0.45862,0.117095 0.858692,0.165884 1.200217,0.13661 a 0.28297795,0.16588363 60 0 0 0.08782,-0.253704 L 11.62125,25.718829 a 0.28297795,0.16588363 60 0 0 -0.27322,-0.263462 c -0.302493,0.01952 -0.653776,-0.0098 -1.053849,-0.117095 A 4.9765089,4.9765089 0 0 1 9.0256596,24.80159 7.3671847,7.3671847 0 0 1 7.3473076,23.455005 9.2894832,9.2894832 0 0 1 5.1420311,19.551861 8.0112035,8.0112035 0 0 1 4.8297795,17.356343 c 0,-0.73184 0.097579,-1.336827 0.3122516,-1.834478 0.2049151,-0.487893 0.4976509,-0.848934 0.8782074,-1.073365 0.3805566,-0.243946 0.8196603,-0.331767 1.3270691,-0.292736 0.5074087,0.04879 1.0733646,0.243947 1.678352,0.59523 0.6049873,0.351283 1.1514274,0.790387 1.6588364,1.327069 a 9.2797253,9.2797253 0 0 1 2.176003,3.864113 c 0.204915,0.731839 0.312251,1.463679 0.312251,2.195518 0,0.770871 -0.126852,1.268522 -0.351283,1.531984 -0.234188,0.263463 -0.507408,0.27322 -0.907481,0.04879 a 1.0538489,1.0538489 0 0 1 -0.458619,-0.448862 1.9125407,1.9125407 0 0 1 -0.146368,-0.809902 v -4.273943 a 0.28297795,0.16588363 60 0 0 -0.195157,-0.341525 l -0.45862,-0.27322 a 0.28297795,0.16588363 60 0 0 -0.195157,0.117094 v 0.536682 C 10.342971,18.000361 10.274666,17.766173 10.128298,17.5515 A 3.707987,3.707987 0 0 0 8.928081,16.448862 C 8.4499458,16.175641 8.0205999,16.068305 7.6400434,16.146368 c -0.3707987,0.06831 -0.6635345,0.302494 -0.8782075,0.68305 -0.204915,0.361041 -0.3122515,0.858692 -0.3122515,1.463679 a 6.2450307,6.2450307 0 0 0 1.1514275,3.483556 c 0.3805566,0.517167 0.8196603,0.917239 1.3075533,1.200217 0.4878931,0.282978 0.9172389,0.390315 1.2490058,0.292736 0.214673,-0.07806 0.32201,-0.292736 0.45862,-0.487893 0.05855,0.27322 0.07806,0.536682 0.195157,0.790387 0.234189,0.468377 0.614745,0.829418 1.073365,1.09288 0.663534,0.390315 1.219732,0.390315 1.590531,0 0.380557,-0.380556 0.556198,-1.073365 0.556198,-2.049151 0,-0.839176 -0.126852,-1.697867 -0.380557,-2.556559 a 11.367907,11.367907 0 0 0 -2.634622,-4.683773 8.6259487,8.6259487 0 0 0 -1.9906034,-1.600289 4.9472353,4.9472353 0 0 0 -2.0198772,-0.702566 3.2103361,3.2103361 0 0 0 -0.4488615,0 z m 1.7271413,4.137333 c 0.1951572,0 0.419588,0.07806 0.6635345,0.22443 0.5074087,0.292736 0.8489338,0.683051 1.1123963,1.249007 0.263462,0.575713 0.40983,1.209974 0.40983,1.922298 0,0.712324 -0.146368,1.190459 -0.40983,1.463679 C 9.7965305,22.332851 9.4550054,22.323094 8.9475967,22.030358 8.6158294,21.835201 8.3426093,21.591254 8.0986628,21.259487 A 4.2934586,4.2934586 0 0 1 7.318034,18.790748 c 0,-0.468377 0.078063,-0.829418 0.2146729,-1.09288 C 7.669317,17.434405 7.8547163,17.27828 8.0986628,17.22949 A 0.80014456,0.80014456 0 0 1 8.29382,17.209975 Z"
       id="path12"
       style="opacity:0.608746;stroke-width:0.975786" />
    <path
       d="M 10.947958,3.6075172 7.0448139,5.8518251 20.052042,13.365378 v 4.517889 l 3.903144,-2.254066 V 11.12107 Z"
       id="path1"
       style="opacity:0.5;fill:#000000;fill-opacity:1;stroke-width:0.975786" />
    <path
       d="M 15.504879,0.40693884 2,7.9999999 V 24 L 15.504879,31.593061 29,24 V 7.9999999 Z"
       id="path2"
       style="fill:none;stroke-width:2;stroke:#000000;stroke-opacity:1;stroke-dasharray:none"
       sodipodi:nodetypes="ccccccc" />
    <path
       d="M 15.504879,-15.593061 2,-8.0000001 V 8 L 15.504879,15.593061 29,8 V -8.0000001 Z"
       id="path2-2"
       style="fill:none;stroke:#000000;stroke-width:1;stroke-dasharray:none;stroke-opacity:1"
       sodipodi:nodetypes="ccccccc" />
    <rect
       style="opacity:1;fill:#000000;fill-opacity:1;stroke:none;stroke-width:1.01356;stroke-linecap:round;stroke-dasharray:none;stroke-dashoffset:40.32;stroke-opacity:1;paint-order:markers fill stroke"
       id="rect14"
       width="1"
       height="15.409682"
       x="15"
       y="15.590318" />
  </g>
</svg>
